{
  "source": "C:\\Users\\Peter\\Desktop\\stuff\\MIUN\\quantitative_research\\video_compression\\videos\\BVI-HD\\BVI-HD_CDVL_videos\\ORIG\\Hamster_1920x1080_60fps.mp4",
  "output": "C:\\Users\\Peter\\Desktop\\stuff\\MIUN\\quantitative_research\\video_compression\\compressed_videos\\BVI-HD\\hevc\\2.5\\Hamster_1920x1080_60fps_hevc.mp4",
  "codec": "hevc",
  "ok": "Input #0, mov,mp4,m4a,3gp,3g2,mj2, from 'C:\\Users\\Peter\\Desktop\\stuff\\MIUN\\quantitative_research\\video_compression\\videos\\BVI-HD\\BVI-HD_CDVL_videos\\ORIG\\Hamster_1920x1080_60fps.mp4':\n  Metadata:\n    major_brand     : isom\n    minor_version   : 512\n    compatible_brands: isomiso2avc1mp41\n    encoder         : Lavf54.28.101\n  Duration: 00:00:05.00, start: 0.000000, bitrate: 208485 kb/s\n  Stream #0:0[0x1](und): Video: h264 (High 4:4:4 Predictive) (avc1 / 0x31637661), yuv420p(progressive), 1920x1080, 208481 kb/s, 60 fps, 60 tbr, 60 tbn (default)\n    Metadata:\n      handler_name    : VideoHandler\n      vendor_id       : [0][0][0][0]\n[out#0/mp4 @ 000001afd5c2ac00] Codec AVOption b:a (set bitrate (in bits/s)) has not been used for any stream. The most likely reason is either wrong type (e.g. a video option with no video streams) or that it is a private option of some decoder which was not actually used for any stream.\nStream mapping:\n  Stream #0:0 -> #0:0 (h264 (native) -> hevc (libx265))\nPress [q] to stop, [?] for help\n[libx265 @ 000001afd63aa440] Unknown option: \"aq-mode.\nx265 [info]: HEVC encoder version 4.1+190-8f11c33ac\nx265 [info]: build info [Windows][GCC 15.1.0][64 bit] 10bit\nx265 [info]: using cpu capabilities: MMX2 SSE2Fast LZCNT SSSE3 SSE4.2 AVX FMA3 BMI2 AVX2\nx265 [info]: Main 10 profile, Level-4.1 (Main tier)\nx265 [info]: Thread pool created using 12 threads\nx265 [info]: Slices                              : 1\nx265 [info]: frame threads / pool features       : 3 / wpp(17 rows)\nx265 [info]: Coding QT: max CU size, min CU size : 64 / 8\nx265 [info]: Residual QT: max TU size, max depth : 32 / 1 inter / 1 intra\nx265 [info]: ME / range / subpel / merge         : star / 57 / 3 / 3\nx265 [info]: Keyframe min / max / scenecut / bias  : 25 / 250 / 40 / 5.00 \nx265 [info]: Lookahead / bframes / badapt        : 25 / 4 / 2\nx265 [info]: b-pyramid / weightp / weightb       : 1 / 1 / 0\nx265 [info]: References / ref-limit  cu / depth  : 4 / on / on\nx265 [info]: AQ: mode / str / qg-size / cu-tree  : 2 / 1.0 / 32 / 1\nx265 [info]: Rate Control / qCompress            : ABR-2500 kbps / 0.60\nx265 [info]: VBV/HRD buffer / max-rate / init    : 2500 / 2500 / 0.750\nx265 [info]: tools: rect limit-modes rd=4 psy-rd=2.00 rdoq=2 psy-rdoq=1.00\nx265 [info]: tools: rskip mode=1 signhide tmvp strong-intra-smoothing lslices=4\nx265 [info]: tools: deblock sao dhdr10-info\nOutput #0, mp4, to 'C:\\Users\\Peter\\Desktop\\stuff\\MIUN\\quantitative_research\\video_compression\\compressed_videos\\BVI-HD\\hevc\\2.5\\Hamster_1920x1080_60fps_hevc.mp4':\n  Metadata:\n    major_brand     : isom\n    minor_version   : 512\n    compatible_brands: isomiso2avc1mp41\n    encoder         : Lavf62.3.100\n  Stream #0:0(und): Video: hevc (hev1 / 0x31766568), yuv420p10le(tv, progressive), 1920x1080, q=2-31, 2500 kb/s, 60 fps, 15360 tbn (default)\n    Metadata:\n      encoder         : Lavc62.11.100 libx265\n      handler_name    : VideoHandler\n      vendor_id       : [0][0][0][0]\n    Side data:\n      cpb: bitrate max/min/avg: 2500000/0/2500000 buffer size: 2500000 vbv_delay: N/A\nframe=    0 fps=0.0 q=0.0 size=       0KiB time=N/A bitrate=N/A speed=N/A elapsed=0:00:00.51    \nframe=    0 fps=0.0 q=0.0 size=       0KiB time=N/A bitrate=N/A speed=N/A elapsed=0:00:01.07    \nframe=    0 fps=0.0 q=0.0 size=       0KiB time=N/A bitrate=N/A speed=N/A elapsed=0:00:01.59    \nframe=    0 fps=0.0 q=0.0 size=       0KiB time=N/A bitrate=N/A speed=N/A elapsed=0:00:02.13    \nframe=    0 fps=0.0 q=0.0 size=       0KiB time=N/A bitrate=N/A speed=N/A elapsed=0:00:02.65    \nframe=    0 fps=0.0 q=0.0 size=       0KiB time=N/A bitrate=N/A speed=N/A elapsed=0:00:03.17    \nframe=    0 fps=0.0 q=0.0 size=       0KiB time=N/A bitrate=N/A speed=N/A elapsed=0:00:03.69    \nframe=    0 fps=0.0 q=0.0 size=       0KiB time=N/A bitrate=N/A speed=N/A elapsed=0:00:04.19    \nframe=    0 fps=0.0 q=0.0 size=       0KiB time=N/A bitrate=N/A speed=N/A elapsed=0:00:04.72    \nframe=    0 fps=0.0 q=0.0 size=       0KiB time=N/A bitrate=N/A speed=N/A elapsed=0:00:05.25    \nframe=    1 fps=0.2 q=36.9 size=       0KiB time=-00:00:00.01 bitrate=N/A speed=N/A elapsed=0:00:05.76    \nframe=    3 fps=0.5 q=41.2 size=       0KiB time=00:00:00.01 bitrate=  21.1kbits/s speed=0.00265x elapsed=0:00:06.29    \nframe=    3 fps=0.4 q=41.2 size=       0KiB time=00:00:00.01 bitrate=  21.1kbits/s speed=0.00244x elapsed=0:00:06.81    \nframe=    3 fps=0.4 q=41.2 size=       0KiB time=00:00:00.01 bitrate=  21.1kbits/s speed=0.00227x elapsed=0:00:07.34    \nframe=    3 fps=0.4 q=41.2 size=       0KiB time=00:00:00.01 bitrate=  21.1kbits/s speed=0.00212x elapsed=0:00:07.87    \nframe=    4 fps=0.5 q=41.5 size=       0KiB time=00:00:00.03 bitrate=  10.6kbits/s speed=0.00398x elapsed=0:00:08.38    \nframe=    5 fps=0.6 q=40.0 size=       0KiB time=00:00:00.05 bitrate=   7.0kbits/s speed=0.00561x elapsed=0:00:08.90    \nframe=    5 fps=0.5 q=40.0 size=       0KiB time=00:00:00.05 bitrate=   7.0kbits/s speed=0.0053x elapsed=0:00:09.42    \nframe=    6 fps=0.6 q=34.9 size=       0KiB time=00:00:00.06 bitrate=   5.3kbits/s speed=0.00671x elapsed=0:00:09.93    \nframe=    6 fps=0.6 q=34.9 size=       0KiB time=00:00:00.06 bitrate=   5.3kbits/s speed=0.00638x elapsed=0:00:10.45    \nframe=    7 fps=0.6 q=37.4 size=       0KiB time=00:00:00.08 bitrate=   4.2kbits/s speed=0.00759x elapsed=0:00:10.97    \nframe=    7 fps=0.6 q=37.4 size=       0KiB time=00:00:00.08 bitrate=   4.2kbits/s speed=0.00726x elapsed=0:00:11.48    \nframe=    7 fps=0.6 q=37.4 size=       0KiB time=00:00:00.08 bitrate=   4.2kbits/s speed=0.00694x elapsed=0:00:12.01    \nframe=    7 fps=0.6 q=37.4 size=       0KiB time=00:00:00.08 bitrate=   4.2kbits/s speed=0.00662x elapsed=0:00:12.58    \nframe=    7 fps=0.5 q=37.4 size=       0KiB time=00:00:00.08 bitrate=   4.2kbits/s speed=0.00636x elapsed=0:00:13.11    \nframe=    7 fps=0.5 q=37.4 size=       0KiB time=00:00:00.08 bitrate=   4.2kbits/s speed=0.0061x elapsed=0:00:13.66    \nframe=    8 fps=0.6 q=37.6 size=       0KiB time=00:00:00.10 bitrate=   3.5kbits/s speed=0.00704x elapsed=0:00:14.20    \nframe=    8 fps=0.5 q=37.6 size=       0KiB time=00:00:00.10 bitrate=   3.5kbits/s speed=0.00678x elapsed=0:00:14.75    \nframe=    8 fps=0.5 q=37.6 size=       0KiB time=00:00:00.10 bitrate=   3.5kbits/s speed=0.00654x elapsed=0:00:15.30    \nframe=    8 fps=0.5 q=37.6 size=       0KiB time=00:00:00.10 bitrate=   3.5kbits/s speed=0.00632x elapsed=0:00:15.81    \nframe=    9 fps=0.6 q=38.3 size=       0KiB time=00:00:00.11 bitrate=   3.0kbits/s speed=0.00715x elapsed=0:00:16.32    \nframe=    9 fps=0.5 q=38.3 size=       0KiB time=00:00:00.11 bitrate=   3.0kbits/s speed=0.00692x elapsed=0:00:16.86    \nframe=    9 fps=0.5 q=38.3 size=       0KiB time=00:00:00.11 bitrate=   3.0kbits/s speed=0.00671x elapsed=0:00:17.38    \nframe=   10 fps=0.6 q=38.9 size=       0KiB time=00:00:00.13 bitrate=   2.6kbits/s speed=0.00745x elapsed=0:00:17.90    \nframe=   10 fps=0.5 q=38.9 size=       0KiB time=00:00:00.13 bitrate=   2.6kbits/s speed=0.00723x elapsed=0:00:18.42    \nframe=   10 fps=0.5 q=38.9 size=       0KiB time=00:00:00.13 bitrate=   2.6kbits/s speed=0.00703x elapsed=0:00:18.97    \nframe=   10 fps=0.5 q=38.9 size=       0KiB time=00:00:00.13 bitrate=   2.6kbits/s speed=0.00684x elapsed=0:00:19.50    \nframe=   11 fps=0.5 q=33.1 size=       0KiB time=00:00:00.15 bitrate=   2.3kbits/s speed=0.00748x elapsed=0:00:20.05    \nframe=   11 fps=0.5 q=33.1 size=       0KiB time=00:00:00.15 bitrate=   2.3kbits/s speed=0.0073x elapsed=0:00:20.55    \nframe=   12 fps=0.6 q=37.4 size=       0KiB time=00:00:00.16 bitrate=   2.1kbits/s speed=0.0079x elapsed=0:00:21.08    \nframe=   12 fps=0.6 q=37.4 size=       0KiB time=00:00:00.16 bitrate=   2.1kbits/s speed=0.0077x elapsed=0:00:21.64    \nframe=   13 fps=0.6 q=39.1 size=       0KiB time=00:00:00.18 bitrate=   1.9kbits/s speed=0.00827x elapsed=0:00:22.17    \nframe=   13 fps=0.6 q=39.1 size=       0KiB time=00:00:00.18 bitrate=   1.9kbits/s speed=0.00808x elapsed=0:00:22.70    \nframe=   13 fps=0.6 q=39.1 size=       0KiB time=00:00:00.18 bitrate=   1.9kbits/s speed=0.00789x elapsed=0:00:23.22    \nframe=   13 fps=0.5 q=39.1 size=       0KiB time=00:00:00.18 bitrate=   1.9kbits/s speed=0.00771x elapsed=0:00:23.78    \nframe=   14 fps=0.6 q=38.6 size=       0KiB time=00:00:00.20 bitrate=   1.8kbits/s speed=0.00821x elapsed=0:00:24.35    \nframe=   14 fps=0.6 q=38.6 size=       0KiB time=00:00:00.20 bitrate=   1.8kbits/s speed=0.00803x elapsed=0:00:24.90    \nframe=   14 fps=0.6 q=38.6 size=       0KiB time=00:00:00.20 bitrate=   1.8kbits/s speed=0.00786x elapsed=0:00:25.44    \nframe=   14 fps=0.5 q=38.6 size=       0KiB time=00:00:00.20 bitrate=   1.8kbits/s speed=0.00771x elapsed=0:00:25.95    \nframe=   14 fps=0.5 q=38.6 size=       0KiB time=00:00:00.20 bitrate=   1.8kbits/s speed=0.00755x elapsed=0:00:26.49    \nframe=   15 fps=0.6 q=32.9 size=       0KiB time=00:00:00.21 bitrate=   1.6kbits/s speed=0.00801x elapsed=0:00:27.05    \nframe=   15 fps=0.5 q=32.9 size=       0KiB time=00:00:00.21 bitrate=   1.6kbits/s speed=0.00784x elapsed=0:00:27.62    \nframe=   15 fps=0.5 q=32.9 size=       0KiB time=00:00:00.21 bitrate=   1.6kbits/s speed=0.0077x elapsed=0:00:28.14    \nframe=   15 fps=0.5 q=32.9 size=       0KiB time=00:00:00.21 bitrate=   1.6kbits/s speed=0.00755x elapsed=0:00:28.68    \nframe=   15 fps=0.5 q=32.9 size=       0KiB time=00:00:00.21 bitrate=   1.6kbits/s speed=0.00742x elapsed=0:00:29.20    \nframe=   16 fps=0.5 q=34.1 size=       0KiB time=00:00:00.23 bitrate=   1.5kbits/s speed=0.00784x elapsed=0:00:29.75    \nframe=   16 fps=0.5 q=34.1 size=       0KiB time=00:00:00.23 bitrate=   1.5kbits/s speed=0.00771x elapsed=0:00:30.28    \nframe=   17 fps=0.6 q=37.9 size=       0KiB time=00:00:00.25 bitrate=   1.4kbits/s speed=0.00812x elapsed=0:00:30.80    \nframe=   17 fps=0.5 q=37.9 size=       0KiB time=00:00:00.25 bitrate=   1.4kbits/s speed=0.00797x elapsed=0:00:31.35    \nframe=   17 fps=0.5 q=37.9 size=       0KiB time=00:00:00.25 bitrate=   1.4kbits/s speed=0.00783x elapsed=0:00:31.90    \nframe=   17 fps=0.5 q=37.9 size=       0KiB time=00:00:00.25 bitrate=   1.4kbits/s speed=0.0077x elapsed=0:00:32.45    \nframe=   18 fps=0.5 q=37.9 size=       0KiB time=00:00:00.26 bitrate=   1.3kbits/s speed=0.00809x elapsed=0:00:32.96    \nframe=   18 fps=0.5 q=37.9 size=       0KiB time=00:00:00.26 bitrate=   1.3kbits/s speed=0.00796x elapsed=0:00:33.49    \nframe=   19 fps=0.6 q=38.2 size=       0KiB time=00:00:00.28 bitrate=   1.2kbits/s speed=0.00833x elapsed=0:00:34.01    \nframe=   20 fps=0.6 q=32.8 size=       0KiB time=00:00:00.30 bitrate=   1.2kbits/s speed=0.00869x elapsed=0:00:34.53    \nframe=   20 fps=0.6 q=32.8 size=       0KiB time=00:00:00.30 bitrate=   1.2kbits/s speed=0.00855x elapsed=0:00:35.09    \nframe=   20 fps=0.6 q=32.8 size=       0KiB time=00:00:00.30 bitrate=   1.2kbits/s speed=0.00841x elapsed=0:00:35.65    \nframe=   21 fps=0.6 q=35.6 size=       0KiB time=00:00:00.31 bitrate=   1.1kbits/s speed=0.00874x elapsed=0:00:36.21    \nframe=   22 fps=0.6 q=37.8 size=       0KiB time=00:00:00.33 bitrate=   1.1kbits/s speed=0.00907x elapsed=0:00:36.73    \nframe=   22 fps=0.6 q=37.8 size=       0KiB time=00:00:00.33 bitrate=   1.1kbits/s speed=0.00894x elapsed=0:00:37.26    \nframe=   22 fps=0.6 q=37.8 size=       0KiB time=00:00:00.33 bitrate=   1.1kbits/s speed=0.00882x elapsed=0:00:37.81    \nframe=   23 fps=0.6 q=37.7 size=       0KiB time=00:00:00.35 bitrate=   1.0kbits/s speed=0.00912x elapsed=0:00:38.37    \nframe=   23 fps=0.6 q=37.7 size=       0KiB time=00:00:00.35 bitrate=   1.0kbits/s speed=0.009x elapsed=0:00:38.90    \nframe=   23 fps=0.6 q=37.7 size=       0KiB time=00:00:00.35 bitrate=   1.0kbits/s speed=0.00887x elapsed=0:00:39.45    \nframe=   24 fps=0.6 q=32.7 size=       0KiB time=00:00:00.36 bitrate=   1.0kbits/s speed=0.00917x elapsed=0:00:39.99    \nframe=   25 fps=0.6 q=35.3 size=       0KiB time=00:00:00.38 bitrate=   0.9kbits/s speed=0.00946x elapsed=0:00:40.51    \nframe=   25 fps=0.6 q=35.3 size=       0KiB time=00:00:00.38 bitrate=   0.9kbits/s speed=0.00934x elapsed=0:00:41.04    \nframe=   25 fps=0.6 q=35.3 size=       0KiB time=00:00:00.38 bitrate=   0.9kbits/s speed=0.00921x elapsed=0:00:41.62    \nframe=   26 fps=0.6 q=37.0 size=       0KiB time=00:00:00.40 bitrate=   0.9kbits/s speed=0.00949x elapsed=0:00:42.15    \nframe=   26 fps=0.6 q=37.0 size=       0KiB time=00:00:00.40 bitrate=   0.9kbits/s speed=0.00936x elapsed=0:00:42.72    \nframe=   27 fps=0.6 q=37.1 size=       0KiB time=00:00:00.41 bitrate=   0.8kbits/s speed=0.00964x elapsed=0:00:43.23    \nframe=   28 fps=0.6 q=32.3 size=       0KiB time=00:00:00.43 bitrate=   0.8kbits/s speed=0.0099x elapsed=0:00:43.77    \nframe=   29 fps=0.7 q=35.3 size=       0KiB time=00:00:00.45 bitrate=   0.8kbits/s speed=0.0102x elapsed=0:00:44.29    \nframe=   29 fps=0.6 q=35.3 size=       0KiB time=00:00:00.45 bitrate=   0.8kbits/s speed=0.01x elapsed=0:00:44.80    \nframe=   29 fps=0.6 q=35.3 size=       0KiB time=00:00:00.45 bitrate=   0.8kbits/s speed=0.00993x elapsed=0:00:45.33    \nframe=   29 fps=0.6 q=35.3 size=       0KiB time=00:00:00.45 bitrate=   0.8kbits/s speed=0.00981x elapsed=0:00:45.86    \nframe=   30 fps=0.6 q=37.3 size=       0KiB time=00:00:00.46 bitrate=   0.8kbits/s speed=0.0101x elapsed=0:00:46.40    \nframe=   30 fps=0.6 q=37.3 size=       0KiB time=00:00:00.46 bitrate=   0.8kbits/s speed=0.00995x elapsed=0:00:46.92    \nframe=   30 fps=0.6 q=37.3 size=       0KiB time=00:00:00.46 bitrate=   0.8kbits/s speed=0.00984x elapsed=0:00:47.44    \nframe=   30 fps=0.6 q=37.3 size=       0KiB time=00:00:00.46 bitrate=   0.8kbits/s speed=0.00973x elapsed=0:00:47.96    \nframe=   31 fps=0.6 q=37.2 size=       0KiB time=00:00:00.48 bitrate=   0.7kbits/s speed=0.00996x elapsed=0:00:48.51    \nframe=   31 fps=0.6 q=37.2 size=       0KiB time=00:00:00.48 bitrate=   0.7kbits/s speed=0.00985x elapsed=0:00:49.04    \nframe=   31 fps=0.6 q=37.2 size=       0KiB time=00:00:00.48 bitrate=   0.7kbits/s speed=0.00975x elapsed=0:00:49.59    \nframe=   31 fps=0.6 q=37.2 size=       0KiB time=00:00:00.48 bitrate=   0.7kbits/s speed=0.00964x elapsed=0:00:50.15    \nframe=   32 fps=0.6 q=32.1 size=       0KiB time=00:00:00.50 bitrate=   0.7kbits/s speed=0.00985x elapsed=0:00:50.73    \nframe=   32 fps=0.6 q=32.1 size=       0KiB time=00:00:00.50 bitrate=   0.7kbits/s speed=0.00974x elapsed=0:00:51.34    \nframe=   32 fps=0.6 q=32.1 size=       0KiB time=00:00:00.50 bitrate=   0.7kbits/s speed=0.00963x elapsed=0:00:51.92    \nframe=   32 fps=0.6 q=32.1 size=       0KiB time=00:00:00.50 bitrate=   0.7kbits/s speed=0.00952x elapsed=0:00:52.53    \nframe=   33 fps=0.6 q=35.3 size=       0KiB time=00:00:00.51 bitrate=   0.7kbits/s speed=0.00974x elapsed=0:00:53.06    \nframe=   33 fps=0.6 q=35.3 size=       0KiB time=00:00:00.51 bitrate=   0.7kbits/s speed=0.00963x elapsed=0:00:53.62    \nframe=   33 fps=0.6 q=35.3 size=       0KiB time=00:00:00.51 bitrate=   0.7kbits/s speed=0.00953x elapsed=0:00:54.18    \nframe=   34 fps=0.6 q=37.4 size=       0KiB time=00:00:00.53 bitrate=   0.7kbits/s speed=0.00974x elapsed=0:00:54.72    \nframe=   35 fps=0.6 q=37.4 size=       0KiB time=00:00:00.55 bitrate=   0.6kbits/s speed=0.00995x elapsed=0:00:55.27    \nframe=   35 fps=0.6 q=37.4 size=       0KiB time=00:00:00.55 bitrate=   0.6kbits/s speed=0.00986x elapsed=0:00:55.77    \nframe=   36 fps=0.6 q=32.1 size=       0KiB time=00:00:00.56 bitrate=   0.6kbits/s speed=0.0101x elapsed=0:00:56.30    \nframe=   37 fps=0.7 q=35.3 size=       0KiB time=00:00:00.58 bitrate=   0.6kbits/s speed=0.0103x elapsed=0:00:56.80    \nframe=   37 fps=0.6 q=35.3 size=       0KiB time=00:00:00.58 bitrate=   0.6kbits/s speed=0.0102x elapsed=0:00:57.33    \nframe=   37 fps=0.6 q=35.3 size=       0KiB time=00:00:00.58 bitrate=   0.6kbits/s speed=0.0101x elapsed=0:00:57.89    \nframe=   38 fps=0.7 q=37.9 size=       0KiB time=00:00:00.60 bitrate=   0.6kbits/s speed=0.0103x elapsed=0:00:58.40    \nframe=   39 fps=0.7 q=37.3 size=       0KiB time=00:00:00.61 bitrate=   0.6kbits/s speed=0.0105x elapsed=0:00:58.92    \nframe=   39 fps=0.7 q=37.3 size=       0KiB time=00:00:00.61 bitrate=   0.6kbits/s speed=0.0104x elapsed=0:00:59.44    \nframe=   40 fps=0.7 q=32.1 size=       0KiB time=00:00:00.63 bitrate=   0.6kbits/s speed=0.0106x elapsed=0:00:59.97    \nframe=   40 fps=0.7 q=32.1 size=       0KiB time=00:00:00.63 bitrate=   0.6kbits/s speed=0.0105x elapsed=0:01:00.48    \nframe=   41 fps=0.7 q=35.2 size=       0KiB time=00:00:00.65 bitrate=   0.5kbits/s speed=0.0107x elapsed=0:01:00.99    \nframe=   42 fps=0.7 q=37.2 size=       0KiB time=00:00:00.66 bitrate=   0.5kbits/s speed=0.0108x elapsed=0:01:01.51    \nframe=   42 fps=0.7 q=37.2 size=       0KiB time=00:00:00.66 bitrate=   0.5kbits/s speed=0.0107x elapsed=0:01:02.02    \nframe=   42 fps=0.7 q=37.2 size=       0KiB time=00:00:00.66 bitrate=   0.5kbits/s speed=0.0107x elapsed=0:01:02.54    \nframe=   43 fps=0.7 q=37.2 size=       0KiB time=00:00:00.68 bitrate=   0.5kbits/s speed=0.0108x elapsed=0:01:03.06    \nframe=   44 fps=0.7 q=32.1 size=       0KiB time=00:00:00.70 bitrate=   0.5kbits/s speed=0.011x elapsed=0:01:03.59    \nframe=   44 fps=0.7 q=32.1 size=       0KiB time=00:00:00.70 bitrate=   0.5kbits/s speed=0.0109x elapsed=0:01:04.10    \nframe=   45 fps=0.7 q=36.1 size=       0KiB time=00:00:00.71 bitrate=   0.5kbits/s speed=0.0111x elapsed=0:01:04.67    \nframe=   46 fps=0.7 q=37.1 size=       0KiB time=00:00:00.73 bitrate=   0.5kbits/s speed=0.0112x elapsed=0:01:05.19    \nframe=   46 fps=0.7 q=37.1 size=       0KiB time=00:00:00.73 bitrate=   0.5kbits/s speed=0.0112x elapsed=0:01:05.71    \nframe=   47 fps=0.7 q=37.0 size=       0KiB time=00:00:00.75 bitrate=   0.5kbits/s speed=0.0113x elapsed=0:01:06.23    \nframe=   47 fps=0.7 q=37.0 size=       0KiB time=00:00:00.75 bitrate=   0.5kbits/s speed=0.0112x elapsed=0:01:06.80    \nframe=   47 fps=0.7 q=37.0 size=       0KiB time=00:00:00.75 bitrate=   0.5kbits/s speed=0.0111x elapsed=0:01:07.39    \nframe=   47 fps=0.7 q=37.0 size=       0KiB time=00:00:00.75 bitrate=   0.5kbits/s speed=0.011x elapsed=0:01:07.94    \nframe=   48 fps=0.7 q=37.1 size=       0KiB time=00:00:00.76 bitrate=   0.5kbits/s speed=0.0112x elapsed=0:01:08.47    \nframe=   48 fps=0.7 q=37.1 size=       0KiB time=00:00:00.76 bitrate=   0.5kbits/s speed=0.0111x elapsed=0:01:09.02    \nframe=   48 fps=0.7 q=37.1 size=       0KiB time=00:00:00.76 bitrate=   0.5kbits/s speed=0.011x elapsed=0:01:09.62    \nframe=   48 fps=0.7 q=37.1 size=       0KiB time=00:00:00.76 bitrate=   0.5kbits/s speed=0.0109x elapsed=0:01:10.20    \nframe=   50 fps=0.7 q=35.1 size=       0KiB time=00:00:00.80 bitrate=   0.4kbits/s speed=0.0113x elapsed=0:01:10.75    \nframe=   50 fps=0.7 q=35.1 size=       0KiB time=00:00:00.80 bitrate=   0.4kbits/s speed=0.0112x elapsed=0:01:11.29    \nframe=   51 fps=0.7 q=37.3 size=       0KiB time=00:00:00.81 bitrate=   0.4kbits/s speed=0.0114x elapsed=0:01:11.82    \nframe=   51 fps=0.7 q=37.3 size=       0KiB time=00:00:00.81 bitrate=   0.4kbits/s speed=0.0113x elapsed=0:01:12.36    \nframe=   52 fps=0.7 q=37.5 size=       0KiB time=00:00:00.83 bitrate=   0.4kbits/s speed=0.0114x elapsed=0:01:12.90    \nframe=   52 fps=0.7 q=37.5 size=       0KiB time=00:00:00.83 bitrate=   0.4kbits/s speed=0.0114x elapsed=0:01:13.41    \nframe=   52 fps=0.7 q=37.5 size=       0KiB time=00:00:00.83 bitrate=   0.4kbits/s speed=0.0113x elapsed=0:01:13.94    \nframe=   53 fps=0.7 q=32.5 size=       0KiB time=00:00:00.85 bitrate=   0.4kbits/s speed=0.0114x elapsed=0:01:14.48    \nframe=   53 fps=0.7 q=32.5 size=       0KiB time=00:00:00.85 bitrate=   0.4kbits/s speed=0.0113x elapsed=0:01:15.03    \nframe=   53 fps=0.7 q=32.5 size=       0KiB time=00:00:00.85 bitrate=   0.4kbits/s speed=0.0112x elapsed=0:01:15.56    \nframe=   54 fps=0.7 q=35.5 size=       0KiB time=00:00:00.86 bitrate=   0.4kbits/s speed=0.0114x elapsed=0:01:16.08    \nframe=   54 fps=0.7 q=35.5 size=       0KiB time=00:00:00.86 bitrate=   0.4kbits/s speed=0.0113x elapsed=0:01:16.60    \nframe=   54 fps=0.7 q=35.5 size=       0KiB time=00:00:00.86 bitrate=   0.4kbits/s speed=0.0112x elapsed=0:01:17.13    \nframe=   55 fps=0.7 q=37.5 size=     256KiB time=00:00:00.88 bitrate=2374.5kbits/s speed=0.0114x elapsed=0:01:17.66    \nframe=   55 fps=0.7 q=37.5 size=     256KiB time=00:00:00.88 bitrate=2374.5kbits/s speed=0.0113x elapsed=0:01:18.19    \nframe=   56 fps=0.7 q=37.1 size=     256KiB time=00:00:00.90 bitrate=2330.6kbits/s speed=0.0114x elapsed=0:01:18.73    \nframe=   56 fps=0.7 q=37.1 size=     256KiB time=00:00:00.90 bitrate=2330.6kbits/s speed=0.0113x elapsed=0:01:19.30    \nframe=   56 fps=0.7 q=37.1 size=     256KiB time=00:00:00.90 bitrate=2330.6kbits/s speed=0.0113x elapsed=0:01:19.83    \nframe=   57 fps=0.7 q=32.0 size=     256KiB time=00:00:00.91 bitrate=2288.2kbits/s speed=0.0114x elapsed=0:01:20.38    \nframe=   57 fps=0.7 q=32.0 size=     256KiB time=00:00:00.91 bitrate=2288.2kbits/s speed=0.0113x elapsed=0:01:20.90    \nframe=   57 fps=0.7 q=32.0 size=     256KiB time=00:00:00.91 bitrate=2288.2kbits/s speed=0.0113x elapsed=0:01:21.43    \nframe=   57 fps=0.7 q=32.0 size=     256KiB time=00:00:00.91 bitrate=2288.2kbits/s speed=0.0112x elapsed=0:01:21.99    \nframe=   57 fps=0.7 q=32.0 size=     256KiB time=00:00:00.91 bitrate=2288.2kbits/s speed=0.0111x elapsed=0:01:22.52    \nframe=   58 fps=0.7 q=35.3 size=     256KiB time=00:00:00.93 bitrate=2247.3kbits/s speed=0.0112x elapsed=0:01:23.04    \nframe=   58 fps=0.7 q=35.3 size=     256KiB time=00:00:00.93 bitrate=2247.3kbits/s speed=0.0112x elapsed=0:01:23.62    \nframe=   58 fps=0.7 q=35.3 size=     256KiB time=00:00:00.93 bitrate=2247.3kbits/s speed=0.0111x elapsed=0:01:24.17    \nframe=   59 fps=0.7 q=37.5 size=     256KiB time=00:00:00.95 bitrate=2207.9kbits/s speed=0.0112x elapsed=0:01:24.71    \nframe=   59 fps=0.7 q=37.5 size=     256KiB time=00:00:00.95 bitrate=2207.9kbits/s speed=0.0111x elapsed=0:01:25.25    \nframe=   59 fps=0.7 q=37.5 size=     256KiB time=00:00:00.95 bitrate=2207.9kbits/s speed=0.0111x elapsed=0:01:25.77    \nframe=   59 fps=0.7 q=37.5 size=     256KiB time=00:00:00.95 bitrate=2207.9kbits/s speed=0.011x elapsed=0:01:26.30    \nframe=   59 fps=0.7 q=37.5 size=     256KiB time=00:00:00.95 bitrate=2207.9kbits/s speed=0.0109x elapsed=0:01:26.83    \nframe=   59 fps=0.7 q=37.5 size=     256KiB time=00:00:00.95 bitrate=2207.9kbits/s speed=0.0109x elapsed=0:01:27.37    \nframe=   60 fps=0.7 q=32.0 size=     256KiB time=00:00:00.96 bitrate=2169.8kbits/s speed=0.011x elapsed=0:01:27.91    \nframe=   60 fps=0.7 q=32.0 size=     256KiB time=00:00:00.96 bitrate=2169.8kbits/s speed=0.0109x elapsed=0:01:28.46    \nframe=   61 fps=0.7 q=36.0 size=     256KiB time=00:00:00.98 bitrate=2133.1kbits/s speed=0.011x elapsed=0:01:29.01    \nframe=   61 fps=0.7 q=36.0 size=     256KiB time=00:00:00.98 bitrate=2133.1kbits/s speed=0.011x elapsed=0:01:29.55    \nframe=   62 fps=0.7 q=37.4 size=     256KiB time=00:00:01.00 bitrate=2097.5kbits/s speed=0.0111x elapsed=0:01:30.05    \nframe=   62 fps=0.7 q=37.4 size=     256KiB time=00:00:01.00 bitrate=2097.5kbits/s speed=0.011x elapsed=0:01:30.58    \nframe=   62 fps=0.7 q=37.4 size=     256KiB time=00:00:01.00 bitrate=2097.5kbits/s speed=0.011x elapsed=0:01:31.09    \nframe=   63 fps=0.7 q=37.3 size=     256KiB time=00:00:01.01 bitrate=2063.1kbits/s speed=0.0111x elapsed=0:01:31.60    \nframe=   63 fps=0.7 q=37.3 size=     256KiB time=00:00:01.01 bitrate=2063.1kbits/s speed=0.011x elapsed=0:01:32.12    \nframe=   63 fps=0.7 q=37.3 size=     256KiB time=00:00:01.01 bitrate=2063.1kbits/s speed=0.011x elapsed=0:01:32.66    \nframe=   64 fps=0.7 q=37.3 size=     256KiB time=00:00:01.03 bitrate=2029.8kbits/s speed=0.0111x elapsed=0:01:33.22    \nframe=   64 fps=0.7 q=37.3 size=     256KiB time=00:00:01.03 bitrate=2029.8kbits/s speed=0.011x elapsed=0:01:33.79    \nframe=   64 fps=0.7 q=37.3 size=     256KiB time=00:00:01.03 bitrate=2029.8kbits/s speed=0.011x elapsed=0:01:34.31    \nframe=   65 fps=0.7 q=33.1 size=     256KiB time=00:00:01.05 bitrate=1997.6kbits/s speed=0.0111x elapsed=0:01:34.83    \nframe=   65 fps=0.7 q=33.1 size=     256KiB time=00:00:01.05 bitrate=1997.6kbits/s speed=0.011x elapsed=0:01:35.38    \nframe=   67 fps=0.7 q=37.0 size=     256KiB time=00:00:01.08 bitrate=1936.2kbits/s speed=0.0113x elapsed=0:01:35.91    \nframe=   67 fps=0.7 q=37.0 size=     256KiB time=00:00:01.08 bitrate=1936.2kbits/s speed=0.0112x elapsed=0:01:36.44    \nframe=   68 fps=0.7 q=37.3 size=     256KiB time=00:00:01.10 bitrate=1906.8kbits/s speed=0.0113x elapsed=0:01:36.96    \nframe=   68 fps=0.7 q=37.3 size=     256KiB time=00:00:01.10 bitrate=1906.8kbits/s speed=0.0113x elapsed=0:01:37.49    \nframe=   69 fps=0.7 q=37.6 size=     256KiB time=00:00:01.11 bitrate=1878.4kbits/s speed=0.0114x elapsed=0:01:38.02    \nframe=   69 fps=0.7 q=37.6 size=     256KiB time=00:00:01.11 bitrate=1878.4kbits/s speed=0.0113x elapsed=0:01:38.56    \nframe=   70 fps=0.7 q=32.7 size=     256KiB time=00:00:01.13 bitrate=1850.7kbits/s speed=0.0114x elapsed=0:01:39.09    \nframe=   70 fps=0.7 q=32.7 size=     256KiB time=00:00:01.13 bitrate=1850.7kbits/s speed=0.0114x elapsed=0:01:39.65    \nframe=   70 fps=0.7 q=32.7 size=     256KiB time=00:00:01.13 bitrate=1850.7kbits/s speed=0.0113x elapsed=0:01:40.18    \nframe=   70 fps=0.7 q=32.7 size=     256KiB time=00:00:01.13 bitrate=1850.7kbits/s speed=0.0113x elapsed=0:01:40.70    \nframe=   70 fps=0.7 q=32.7 size=     256KiB time=00:00:01.13 bitrate=1850.7kbits/s speed=0.0112x elapsed=0:01:41.25    \nframe=   70 fps=0.7 q=32.7 size=     256KiB time=00:00:01.13 bitrate=1850.7kbits/s speed=0.0111x elapsed=0:01:41.77    \nframe=   71 fps=0.7 q=37.3 size=     256KiB time=00:00:01.15 bitrate=1823.9kbits/s speed=0.0112x elapsed=0:01:42.30    \nframe=   71 fps=0.7 q=37.3 size=     256KiB time=00:00:01.15 bitrate=1823.9kbits/s speed=0.0112x elapsed=0:01:42.82    \nframe=   72 fps=0.7 q=32.8 size=     256KiB time=00:00:01.16 bitrate=1797.9kbits/s speed=0.0113x elapsed=0:01:43.36    \nframe=   72 fps=0.7 q=32.8 size=     256KiB time=00:00:01.16 bitrate=1797.9kbits/s speed=0.0112x elapsed=0:01:43.89    \nframe=   73 fps=0.7 q=35.2 size=     256KiB time=00:00:01.18 bitrate=1772.5kbits/s speed=0.0113x elapsed=0:01:44.42    \nframe=   73 fps=0.7 q=35.2 size=     256KiB time=00:00:01.18 bitrate=1772.5kbits/s speed=0.0113x elapsed=0:01:44.99    \nframe=   73 fps=0.7 q=35.2 size=     256KiB time=00:00:01.18 bitrate=1772.5kbits/s speed=0.0112x elapsed=0:01:45.56    \nframe=   73 fps=0.7 q=35.2 size=     256KiB time=00:00:01.18 bitrate=1772.5kbits/s speed=0.0111x elapsed=0:01:46.14    \nframe=   73 fps=0.7 q=35.2 size=     256KiB time=00:00:01.18 bitrate=1772.5kbits/s speed=0.0111x elapsed=0:01:46.79    \nframe=   73 fps=0.7 q=35.2 size=     256KiB time=00:00:01.18 bitrate=1772.5kbits/s speed=0.011x elapsed=0:01:47.43    \nframe=   73 fps=0.7 q=35.2 size=     256KiB time=00:00:01.18 bitrate=1772.5kbits/s speed=0.011x elapsed=0:01:48.01    \nframe=   73 fps=0.7 q=35.2 size=     256KiB time=00:00:01.18 bitrate=1772.5kbits/s speed=0.0109x elapsed=0:01:48.57    \nframe=   73 fps=0.7 q=35.2 size=     256KiB time=00:00:01.18 bitrate=1772.5kbits/s speed=0.0108x elapsed=0:01:49.17    \nframe=   73 fps=0.7 q=35.2 size=     256KiB time=00:00:01.18 bitrate=1772.5kbits/s speed=0.0108x elapsed=0:01:49.72    \nframe=   73 fps=0.7 q=35.2 size=     256KiB time=00:00:01.18 bitrate=1772.5kbits/s speed=0.0107x elapsed=0:01:50.24    \nframe=   74 fps=0.7 q=37.4 size=     256KiB time=00:00:01.20 bitrate=1747.9kbits/s speed=0.0108x elapsed=0:01:50.78    \nframe=   74 fps=0.7 q=37.4 size=     256KiB time=00:00:01.20 bitrate=1747.9kbits/s speed=0.0108x elapsed=0:01:51.34    \nframe=   74 fps=0.7 q=37.4 size=     256KiB time=00:00:01.20 bitrate=1747.9kbits/s speed=0.0107x elapsed=0:01:51.88    \nframe=   75 fps=0.7 q=37.4 size=     256KiB time=00:00:01.21 bitrate=1724.0kbits/s speed=0.0108x elapsed=0:01:52.40    \nframe=   76 fps=0.7 q=33.1 size=     256KiB time=00:00:01.23 bitrate=1700.7kbits/s speed=0.0109x elapsed=0:01:52.93    \nframe=   76 fps=0.7 q=33.1 size=     256KiB time=00:00:01.23 bitrate=1700.7kbits/s speed=0.0109x elapsed=0:01:53.47    \nframe=   77 fps=0.7 q=35.5 size=     256KiB time=00:00:01.25 bitrate=1678.0kbits/s speed=0.011x elapsed=0:01:53.99    \nframe=   77 fps=0.7 q=35.5 size=     256KiB time=00:00:01.25 bitrate=1678.0kbits/s speed=0.0109x elapsed=0:01:54.51    \nframe=   78 fps=0.7 q=37.3 size=     256KiB time=00:00:01.26 bitrate=1655.9kbits/s speed=0.011x elapsed=0:01:55.03    \nframe=   78 fps=0.7 q=37.3 size=     256KiB time=00:00:01.26 bitrate=1655.9kbits/s speed=0.011x elapsed=0:01:55.56    \nframe=   78 fps=0.7 q=37.3 size=     256KiB time=00:00:01.26 bitrate=1655.9kbits/s speed=0.0109x elapsed=0:01:56.08    \nframe=   79 fps=0.7 q=37.9 size=     256KiB time=00:00:01.28 bitrate=1634.4kbits/s speed=0.011x elapsed=0:01:56.58    \nframe=   79 fps=0.7 q=37.9 size=     256KiB time=00:00:01.28 bitrate=1634.4kbits/s speed=0.011x elapsed=0:01:57.10    \nframe=   79 fps=0.7 q=37.9 size=     256KiB time=00:00:01.28 bitrate=1634.4kbits/s speed=0.0109x elapsed=0:01:57.62    \nframe=   80 fps=0.7 q=32.8 size=     256KiB time=00:00:01.30 bitrate=1613.5kbits/s speed=0.011x elapsed=0:01:58.13    \nframe=   80 fps=0.7 q=32.8 size=     256KiB time=00:00:01.30 bitrate=1613.5kbits/s speed=0.011x elapsed=0:01:58.65    \nframe=   81 fps=0.7 q=36.7 size=     256KiB time=00:00:01.31 bitrate=1593.0kbits/s speed=0.011x elapsed=0:01:59.16    \nframe=   82 fps=0.7 q=38.0 size=     256KiB time=00:00:01.33 bitrate=1573.1kbits/s speed=0.0111x elapsed=0:01:59.70    \nframe=   82 fps=0.7 q=38.0 size=     256KiB time=00:00:01.33 bitrate=1573.1kbits/s speed=0.0111x elapsed=0:02:00.22    \nframe=   83 fps=0.7 q=38.0 size=     256KiB time=00:00:01.35 bitrate=1553.7kbits/s speed=0.0112x elapsed=0:02:00.73    \nframe=   83 fps=0.7 q=38.0 size=     256KiB time=00:00:01.35 bitrate=1553.7kbits/s speed=0.0111x elapsed=0:02:01.25    \nframe=   83 fps=0.7 q=38.0 size=     256KiB time=00:00:01.35 bitrate=1553.7kbits/s speed=0.0111x elapsed=0:02:01.76    \nframe=   84 fps=0.7 q=38.1 size=     256KiB time=00:00:01.36 bitrate=1534.8kbits/s speed=0.0112x elapsed=0:02:02.27    \nframe=   85 fps=0.7 q=32.9 size=     256KiB time=00:00:01.38 bitrate=1516.3kbits/s speed=0.0113x elapsed=0:02:02.80    \nframe=   85 fps=0.7 q=32.9 size=     256KiB time=00:00:01.38 bitrate=1516.3kbits/s speed=0.0112x elapsed=0:02:03.30    \nframe=   86 fps=0.7 q=36.0 size=     256KiB time=00:00:01.40 bitrate=1498.2kbits/s speed=0.0113x elapsed=0:02:03.84    \nframe=   86 fps=0.7 q=36.0 size=     256KiB time=00:00:01.40 bitrate=1498.2kbits/s speed=0.0113x elapsed=0:02:04.37    \nframe=   87 fps=0.7 q=38.3 size=     256KiB time=00:00:01.41 bitrate=1480.6kbits/s speed=0.0113x elapsed=0:02:04.91    \nframe=   88 fps=0.7 q=38.2 size=     256KiB time=00:00:01.43 bitrate=1463.4kbits/s speed=0.0114x elapsed=0:02:05.43    \nframe=   88 fps=0.7 q=38.2 size=     256KiB time=00:00:01.43 bitrate=1463.4kbits/s speed=0.0114x elapsed=0:02:05.98    \nframe=   89 fps=0.7 q=33.4 size=     256KiB time=00:00:01.45 bitrate=1446.6kbits/s speed=0.0115x elapsed=0:02:06.52    \nframe=   89 fps=0.7 q=33.4 size=     256KiB time=00:00:01.45 bitrate=1446.6kbits/s speed=0.0114x elapsed=0:02:07.02    \nframe=   90 fps=0.7 q=36.0 size=     256KiB time=00:00:01.46 bitrate=1430.1kbits/s speed=0.0115x elapsed=0:02:07.54    \nframe=   90 fps=0.7 q=36.0 size=     256KiB time=00:00:01.46 bitrate=1430.1kbits/s speed=0.0115x elapsed=0:02:08.05    \nframe=   90 fps=0.7 q=36.0 size=     256KiB time=00:00:01.46 bitrate=1430.1kbits/s speed=0.0114x elapsed=0:02:08.60    \nframe=   91 fps=0.7 q=38.5 size=     256KiB time=00:00:01.48 bitrate=1414.0kbits/s speed=0.0115x elapsed=0:02:09.14    \nframe=   91 fps=0.7 q=38.5 size=     256KiB time=00:00:01.48 bitrate=1414.0kbits/s speed=0.0114x elapsed=0:02:09.67    \nframe=   91 fps=0.7 q=38.5 size=     256KiB time=00:00:01.48 bitrate=1414.0kbits/s speed=0.0114x elapsed=0:02:10.24    \nframe=   91 fps=0.7 q=38.5 size=     256KiB time=00:00:01.48 bitrate=1414.0kbits/s speed=0.0113x elapsed=0:02:10.78    \nframe=   91 fps=0.7 q=38.5 size=     256KiB time=00:00:01.48 bitrate=1414.0kbits/s speed=0.0113x elapsed=0:02:11.31    \nframe=   91 fps=0.7 q=38.5 size=     256KiB time=00:00:01.48 bitrate=1414.0kbits/s speed=0.0112x elapsed=0:02:11.87    \nframe=   91 fps=0.7 q=38.5 size=     256KiB time=00:00:01.48 bitrate=1414.0kbits/s speed=0.0112x elapsed=0:02:12.43    \nframe=   92 fps=0.7 q=38.6 size=     256KiB time=00:00:01.50 bitrate=1398.3kbits/s speed=0.0113x elapsed=0:02:12.98    \nframe=   92 fps=0.7 q=38.6 size=     256KiB time=00:00:01.50 bitrate=1398.3kbits/s speed=0.0112x elapsed=0:02:13.49    \nframe=   93 fps=0.7 q=33.4 size=     256KiB time=00:00:01.51 bitrate=1383.0kbits/s speed=0.0113x elapsed=0:02:14.04    \nframe=   93 fps=0.7 q=33.4 size=     256KiB time=00:00:01.51 bitrate=1383.0kbits/s speed=0.0113x elapsed=0:02:14.62    \nframe=   93 fps=0.7 q=33.4 size=     256KiB time=00:00:01.51 bitrate=1383.0kbits/s speed=0.0112x elapsed=0:02:15.15    \nframe=   93 fps=0.7 q=33.4 size=     256KiB time=00:00:01.51 bitrate=1383.0kbits/s speed=0.0112x elapsed=0:02:15.67    \nframe=   94 fps=0.7 q=36.6 size=     256KiB time=00:00:01.53 bitrate=1367.9kbits/s speed=0.0113x elapsed=0:02:16.19    \nframe=   94 fps=0.7 q=36.6 size=     256KiB time=00:00:01.53 bitrate=1367.9kbits/s speed=0.0112x elapsed=0:02:16.70    \nframe=   94 fps=0.7 q=36.6 size=     256KiB time=00:00:01.53 bitrate=1367.9kbits/s speed=0.0112x elapsed=0:02:17.22    \nframe=   95 fps=0.7 q=39.1 size=     256KiB time=00:00:01.55 bitrate=1353.2kbits/s speed=0.0112x elapsed=0:02:17.78    \nframe=   95 fps=0.7 q=39.1 size=     256KiB time=00:00:01.55 bitrate=1353.2kbits/s speed=0.0112x elapsed=0:02:18.32    \nframe=   95 fps=0.7 q=39.1 size=     256KiB time=00:00:01.55 bitrate=1353.2kbits/s speed=0.0112x elapsed=0:02:18.90    \nframe=   96 fps=0.7 q=33.8 size=     256KiB time=00:00:01.55 bitrate=1353.2kbits/s speed=0.0111x elapsed=0:02:19.42    \nframe=   96 fps=0.7 q=33.8 size=     256KiB time=00:00:01.56 bitrate=1338.8kbits/s speed=0.0112x elapsed=0:02:20.00    \nframe=   96 fps=0.7 q=33.8 size=     256KiB time=00:00:01.56 bitrate=1338.8kbits/s speed=0.0111x elapsed=0:02:20.54    \nframe=   96 fps=0.7 q=33.8 size=     256KiB time=00:00:01.56 bitrate=1338.8kbits/s speed=0.0111x elapsed=0:02:21.12    \nframe=   96 fps=0.7 q=33.8 size=     256KiB time=00:00:01.56 bitrate=1338.8kbits/s speed=0.0111x elapsed=0:02:21.72    \nframe=   96 fps=0.7 q=33.8 size=     256KiB time=00:00:01.56 bitrate=1338.8kbits/s speed=0.011x elapsed=0:02:22.29    \nframe=   96 fps=0.7 q=33.8 size=     256KiB time=00:00:01.56 bitrate=1338.8kbits/s speed=0.011x elapsed=0:02:22.88    \nframe=   96 fps=0.7 q=33.8 size=     256KiB time=00:00:01.56 bitrate=1338.8kbits/s speed=0.0109x elapsed=0:02:23.45    \nframe=   96 fps=0.7 q=33.8 size=     256KiB time=00:00:01.56 bitrate=1338.8kbits/s speed=0.0109x elapsed=0:02:23.99    \nframe=   96 fps=0.7 q=33.8 size=     256KiB time=00:00:01.56 bitrate=1338.8kbits/s speed=0.0108x elapsed=0:02:24.53    \nframe=   97 fps=0.7 q=37.6 size=     256KiB time=00:00:01.58 bitrate=1324.7kbits/s speed=0.0109x elapsed=0:02:25.06    \nframe=   97 fps=0.7 q=37.6 size=     256KiB time=00:00:01.58 bitrate=1324.7kbits/s speed=0.0109x elapsed=0:02:25.62    \nframe=   97 fps=0.7 q=37.6 size=     256KiB time=00:00:01.58 bitrate=1324.7kbits/s speed=0.0108x elapsed=0:02:26.23    \nframe=   97 fps=0.7 q=37.6 size=     256KiB time=00:00:01.58 bitrate=1324.7kbits/s speed=0.0108x elapsed=0:02:26.79    \nframe=   97 fps=0.7 q=37.6 size=     256KiB time=00:00:01.58 bitrate=1324.7kbits/s speed=0.0107x elapsed=0:02:27.35    \nframe=   98 fps=0.7 q=39.0 size=     512KiB time=00:00:01.60 bitrate=2621.7kbits/s speed=0.0108x elapsed=0:02:27.91    \nframe=   98 fps=0.7 q=39.0 size=     512KiB time=00:00:01.60 bitrate=2621.7kbits/s speed=0.0108x elapsed=0:02:28.45    \nframe=   98 fps=0.7 q=39.0 size=     512KiB time=00:00:01.60 bitrate=2621.7kbits/s speed=0.0107x elapsed=0:02:29.00    \nframe=   98 fps=0.7 q=39.0 size=     512KiB time=00:00:01.60 bitrate=2621.7kbits/s speed=0.0107x elapsed=0:02:29.53    \nframe=   98 fps=0.7 q=39.0 size=     512KiB time=00:00:01.60 bitrate=2621.7kbits/s speed=0.0107x elapsed=0:02:30.04    \nframe=   98 fps=0.7 q=39.0 size=     512KiB time=00:00:01.60 bitrate=2621.7kbits/s speed=0.0106x elapsed=0:02:30.56    \nframe=   98 fps=0.6 q=39.0 size=     512KiB time=00:00:01.60 bitrate=2621.7kbits/s speed=0.0106x elapsed=0:02:31.10    \nframe=   99 fps=0.7 q=39.0 size=     512KiB time=00:00:01.61 bitrate=2594.6kbits/s speed=0.0107x elapsed=0:02:31.66    \nframe=   99 fps=0.7 q=39.0 size=     512KiB time=00:00:01.61 bitrate=2594.6kbits/s speed=0.0106x elapsed=0:02:32.20    \nframe=   99 fps=0.6 q=39.0 size=     512KiB time=00:00:01.61 bitrate=2594.6kbits/s speed=0.0106x elapsed=0:02:32.74    \nframe=  100 fps=0.7 q=39.3 size=     512KiB time=00:00:01.61 bitrate=2594.6kbits/s speed=0.0105x elapsed=0:02:33.30    \nframe=  100 fps=0.6 q=39.3 size=     512KiB time=00:00:01.63 bitrate=2568.2kbits/s speed=0.0106x elapsed=0:02:33.87    \nframe=  100 fps=0.6 q=39.3 size=     512KiB time=00:00:01.63 bitrate=2568.2kbits/s speed=0.0106x elapsed=0:02:34.40    \nframe=  100 fps=0.6 q=39.3 size=     512KiB time=00:00:01.63 bitrate=2568.2kbits/s speed=0.0105x elapsed=0:02:34.91    \nframe=  100 fps=0.6 q=39.3 size=     512KiB time=00:00:01.63 bitrate=2568.2kbits/s speed=0.0105x elapsed=0:02:35.49    \nframe=  101 fps=0.6 q=33.9 size=     512KiB time=00:00:01.65 bitrate=2542.2kbits/s speed=0.0106x elapsed=0:02:36.01    \nframe=  101 fps=0.6 q=33.9 size=     512KiB time=00:00:01.65 bitrate=2542.2kbits/s speed=0.0105x elapsed=0:02:36.55    \nframe=  101 fps=0.6 q=33.9 size=     512KiB time=00:00:01.65 bitrate=2542.2kbits/s speed=0.0105x elapsed=0:02:37.08    \nframe=  101 fps=0.6 q=33.9 size=     512KiB time=00:00:01.65 bitrate=2542.2kbits/s speed=0.0105x elapsed=0:02:37.65    \nframe=  101 fps=0.6 q=33.9 size=     512KiB time=00:00:01.65 bitrate=2542.2kbits/s speed=0.0104x elapsed=0:02:38.30    \nframe=  101 fps=0.6 q=33.9 size=     512KiB time=00:00:01.65 bitrate=2542.2kbits/s speed=0.0104x elapsed=0:02:38.90    \nframe=  101 fps=0.6 q=33.9 size=     512KiB time=00:00:01.65 bitrate=2542.2kbits/s speed=0.0103x elapsed=0:02:39.53    \nframe=  101 fps=0.6 q=33.9 size=     512KiB time=00:00:01.65 bitrate=2542.2kbits/s speed=0.0103x elapsed=0:02:40.20    \nframe=  101 fps=0.6 q=33.9 size=     512KiB time=00:00:01.65 bitrate=2542.2kbits/s speed=0.0103x elapsed=0:02:40.79    \nframe=  101 fps=0.6 q=33.9 size=     512KiB time=00:00:01.65 bitrate=2542.2kbits/s speed=0.0102x elapsed=0:02:41.41    \nframe=  101 fps=0.6 q=33.9 size=     512KiB time=00:00:01.65 bitrate=2542.2kbits/s speed=0.0102x elapsed=0:02:41.96    \nframe=  102 fps=0.6 q=36.6 size=     512KiB time=00:00:01.66 bitrate=2516.8kbits/s speed=0.0103x elapsed=0:02:42.55    \nframe=  102 fps=0.6 q=36.6 size=     512KiB time=00:00:01.66 bitrate=2516.8kbits/s speed=0.0102x elapsed=0:02:43.10    \nframe=  102 fps=0.6 q=36.6 size=     512KiB time=00:00:01.66 bitrate=2516.8kbits/s speed=0.0102x elapsed=0:02:43.70    \nframe=  102 fps=0.6 q=36.6 size=     512KiB time=00:00:01.66 bitrate=2516.8kbits/s speed=0.0101x elapsed=0:02:44.33    \nframe=  102 fps=0.6 q=36.6 size=     512KiB time=00:00:01.66 bitrate=2516.8kbits/s speed=0.0101x elapsed=0:02:45.01    \nframe=  102 fps=0.6 q=36.6 size=     512KiB time=00:00:01.66 bitrate=2516.8kbits/s speed=0.0101x elapsed=0:02:45.65    \nframe=  102 fps=0.6 q=36.6 size=     512KiB time=00:00:01.66 bitrate=2516.8kbits/s speed=0.01x elapsed=0:02:46.25    \nframe=  102 fps=0.6 q=36.6 size=     512KiB time=00:00:01.66 bitrate=2516.8kbits/s speed=0.00999x elapsed=0:02:46.80    \nframe=  102 fps=0.6 q=36.6 size=     512KiB time=00:00:01.66 bitrate=2516.8kbits/s speed=0.00996x elapsed=0:02:47.40    \nframe=  103 fps=0.6 q=39.3 size=     512KiB time=00:00:01.68 bitrate=2491.9kbits/s speed=0.01x elapsed=0:02:47.96    \nframe=  103 fps=0.6 q=39.3 size=     512KiB time=00:00:01.68 bitrate=2491.9kbits/s speed=0.00999x elapsed=0:02:48.53    \nframe=  104 fps=0.6 q=34.1 size=     512KiB time=00:00:01.70 bitrate=2467.4kbits/s speed=0.0101x elapsed=0:02:49.08    \nframe=  104 fps=0.6 q=34.1 size=     512KiB time=00:00:01.70 bitrate=2467.4kbits/s speed=0.01x elapsed=0:02:49.64    \nframe=  104 fps=0.6 q=34.1 size=     512KiB time=00:00:01.70 bitrate=2467.4kbits/s speed=0.00999x elapsed=0:02:50.20    \nframe=  104 fps=0.6 q=34.1 size=     512KiB time=00:00:01.70 bitrate=2467.4kbits/s speed=0.00996x elapsed=0:02:50.75    \nframe=  104 fps=0.6 q=34.1 size=     512KiB time=00:00:01.70 bitrate=2467.4kbits/s speed=0.00992x elapsed=0:02:51.29    \nframe=  105 fps=0.6 q=35.9 size=     512KiB time=00:00:01.71 bitrate=2443.5kbits/s speed=0.00999x elapsed=0:02:51.81    \nframe=  105 fps=0.6 q=35.9 size=     512KiB time=00:00:01.71 bitrate=2443.5kbits/s speed=0.00996x elapsed=0:02:52.35    \nframe=  106 fps=0.6 q=40.0 size=     512KiB time=00:00:01.73 bitrate=2420.0kbits/s speed=0.01x elapsed=0:02:52.87    \nframe=  106 fps=0.6 q=40.0 size=     512KiB time=00:00:01.73 bitrate=2420.0kbits/s speed=0.01x elapsed=0:02:53.41    \nframe=  106 fps=0.6 q=40.0 size=     512KiB time=00:00:01.73 bitrate=2420.0kbits/s speed=0.00996x elapsed=0:02:53.95    \nframe=  107 fps=0.6 q=34.2 size=     512KiB time=00:00:01.75 bitrate=2396.9kbits/s speed=0.01x elapsed=0:02:54.51    \nframe=  108 fps=0.6 q=36.9 size=     512KiB time=00:00:01.76 bitrate=2374.3kbits/s speed=0.0101x elapsed=0:02:55.02    \nframe=  108 fps=0.6 q=36.9 size=     512KiB time=00:00:01.76 bitrate=2374.3kbits/s speed=0.0101x elapsed=0:02:55.57    \nframe=  108 fps=0.6 q=36.9 size=     512KiB time=00:00:01.76 bitrate=2374.3kbits/s speed=0.01x elapsed=0:02:56.08    \nframe=  109 fps=0.6 q=39.7 size=     512KiB time=00:00:01.78 bitrate=2352.1kbits/s speed=0.0101x elapsed=0:02:56.62    \nframe=  109 fps=0.6 q=39.7 size=     512KiB time=00:00:01.78 bitrate=2352.1kbits/s speed=0.0101x elapsed=0:02:57.25    \nframe=  109 fps=0.6 q=39.7 size=     512KiB time=00:00:01.78 bitrate=2352.1kbits/s speed=0.01x elapsed=0:02:57.82    \nframe=  109 fps=0.6 q=39.7 size=     512KiB time=00:00:01.78 bitrate=2352.1kbits/s speed=0.01x elapsed=0:02:58.38    \nframe=  110 fps=0.6 q=39.9 size=     512KiB time=00:00:01.80 bitrate=2330.4kbits/s speed=0.0101x elapsed=0:02:58.96    \nframe=  110 fps=0.6 q=39.9 size=     512KiB time=00:00:01.80 bitrate=2330.4kbits/s speed=0.01x elapsed=0:02:59.49    \nframe=  111 fps=0.6 q=39.8 size=     512KiB time=00:00:01.81 bitrate=2309.0kbits/s speed=0.0101x elapsed=0:03:00.07    \nframe=  112 fps=0.6 q=34.1 size=     512KiB time=00:00:01.83 bitrate=2288.0kbits/s speed=0.0101x elapsed=0:03:00.66    \nframe=  113 fps=0.6 q=37.5 size=     512KiB time=00:00:01.85 bitrate=2267.4kbits/s speed=0.0102x elapsed=0:03:01.25    \nframe=  113 fps=0.6 q=37.5 size=     512KiB time=00:00:01.85 bitrate=2267.4kbits/s speed=0.0102x elapsed=0:03:01.88    \nframe=  113 fps=0.6 q=37.5 size=     512KiB time=00:00:01.85 bitrate=2267.4kbits/s speed=0.0101x elapsed=0:03:02.40    \nframe=  113 fps=0.6 q=37.5 size=     512KiB time=00:00:01.85 bitrate=2267.4kbits/s speed=0.0101x elapsed=0:03:02.97    \nframe=  113 fps=0.6 q=37.5 size=     512KiB time=00:00:01.85 bitrate=2267.4kbits/s speed=0.0101x elapsed=0:03:03.53    \nframe=  113 fps=0.6 q=37.5 size=     512KiB time=00:00:01.85 bitrate=2267.4kbits/s speed=0.01x elapsed=0:03:04.10    \nframe=  113 fps=0.6 q=37.5 size=     512KiB time=00:00:01.85 bitrate=2267.4kbits/s speed=0.01x elapsed=0:03:04.64    \nframe=  113 fps=0.6 q=37.5 size=     512KiB time=00:00:01.85 bitrate=2267.4kbits/s speed=0.00999x elapsed=0:03:05.19    \nframe=  114 fps=0.6 q=39.8 size=     512KiB time=00:00:01.86 bitrate=2247.1kbits/s speed=0.0101x elapsed=0:03:05.73    \nframe=  114 fps=0.6 q=39.8 size=     512KiB time=00:00:01.86 bitrate=2247.1kbits/s speed=0.01x elapsed=0:03:06.32    \nframe=  114 fps=0.6 q=39.8 size=     512KiB time=00:00:01.86 bitrate=2247.1kbits/s speed=0.00999x elapsed=0:03:06.87    \nframe=  114 fps=0.6 q=39.8 size=     512KiB time=00:00:01.86 bitrate=2247.1kbits/s speed=0.00996x elapsed=0:03:07.40    \nframe=  114 fps=0.6 q=39.8 size=     512KiB time=00:00:01.86 bitrate=2247.1kbits/s speed=0.00993x elapsed=0:03:07.92    \nframe=  114 fps=0.6 q=39.8 size=     512KiB time=00:00:01.86 bitrate=2247.1kbits/s speed=0.00991x elapsed=0:03:08.43    \nframe=  114 fps=0.6 q=39.8 size=     512KiB time=00:00:01.86 bitrate=2247.1kbits/s speed=0.00988x elapsed=0:03:08.95    \nframe=  114 fps=0.6 q=39.8 size=     512KiB time=00:00:01.86 bitrate=2247.1kbits/s speed=0.00985x elapsed=0:03:09.49    \nframe=  114 fps=0.6 q=39.8 size=     512KiB time=00:00:01.86 bitrate=2247.1kbits/s speed=0.00982x elapsed=0:03:10.07    \nframe=  114 fps=0.6 q=39.8 size=     512KiB time=00:00:01.86 bitrate=2247.1kbits/s speed=0.00979x elapsed=0:03:10.63    \nframe=  114 fps=0.6 q=39.8 size=     512KiB time=00:00:01.86 bitrate=2247.1kbits/s speed=0.00976x elapsed=0:03:11.20    \nframe=  114 fps=0.6 q=39.8 size=     512KiB time=00:00:01.86 bitrate=2247.1kbits/s speed=0.00973x elapsed=0:03:11.88    \nframe=  115 fps=0.6 q=40.1 size=     512KiB time=00:00:01.88 bitrate=2227.3kbits/s speed=0.00979x elapsed=0:03:12.46    \nframe=  115 fps=0.6 q=40.1 size=     512KiB time=00:00:01.88 bitrate=2227.3kbits/s speed=0.00976x elapsed=0:03:13.03    \nframe=  116 fps=0.6 q=34.2 size=     512KiB time=00:00:01.90 bitrate=2207.7kbits/s speed=0.00981x elapsed=0:03:13.62    \nframe=  116 fps=0.6 q=34.2 size=     512KiB time=00:00:01.90 bitrate=2207.7kbits/s speed=0.00978x elapsed=0:03:14.21    \nframe=  117 fps=0.6 q=38.6 size=     512KiB time=00:00:01.91 bitrate=2188.5kbits/s speed=0.00983x elapsed=0:03:14.88    \nframe=  117 fps=0.6 q=38.6 size=     512KiB time=00:00:01.91 bitrate=2188.5kbits/s speed=0.00981x elapsed=0:03:15.44    \nframe=  117 fps=0.6 q=38.6 size=     512KiB time=00:00:01.91 bitrate=2188.5kbits/s speed=0.00978x elapsed=0:03:16.07    \nframe=  117 fps=0.6 q=38.6 size=     512KiB time=00:00:01.91 bitrate=2188.5kbits/s speed=0.00975x elapsed=0:03:16.68    \nframe=  118 fps=0.6 q=40.1 size=     512KiB time=00:00:01.93 bitrate=2169.7kbits/s speed=0.0098x elapsed=0:03:17.31    \nframe=  118 fps=0.6 q=40.1 size=     512KiB time=00:00:01.93 bitrate=2169.7kbits/s speed=0.00977x elapsed=0:03:17.89    \nframe=  118 fps=0.6 q=40.1 size=     512KiB time=00:00:01.93 bitrate=2169.7kbits/s speed=0.00974x elapsed=0:03:18.47    \nframe=  118 fps=0.6 q=40.1 size=     512KiB time=00:00:01.93 bitrate=2169.7kbits/s speed=0.00971x elapsed=0:03:19.02    \nframe=  118 fps=0.6 q=40.1 size=     512KiB time=00:00:01.93 bitrate=2169.7kbits/s speed=0.00969x elapsed=0:03:19.56    \nframe=  119 fps=0.6 q=40.0 size=     512KiB time=00:00:01.95 bitrate=2151.1kbits/s speed=0.00975x elapsed=0:03:20.08    \nframe=  119 fps=0.6 q=40.0 size=     512KiB time=00:00:01.95 bitrate=2151.1kbits/s speed=0.00972x elapsed=0:03:20.60    \nframe=  120 fps=0.6 q=40.3 size=     512KiB time=00:00:01.96 bitrate=2132.9kbits/s speed=0.00978x elapsed=0:03:21.13    \nframe=  122 fps=0.6 q=37.6 size=     512KiB time=00:00:01.98 bitrate=2115.0kbits/s speed=0.00983x elapsed=0:03:21.75    \nframe=  122 fps=0.6 q=37.6 size=     512KiB time=00:00:02.00 bitrate=2097.3kbits/s speed=0.00988x elapsed=0:03:22.35    \nframe=  123 fps=0.6 q=40.1 size=     512KiB time=00:00:02.01 bitrate=2080.0kbits/s speed=0.00994x elapsed=0:03:22.93    \nframe=  123 fps=0.6 q=40.1 size=     512KiB time=00:00:02.01 bitrate=2080.0kbits/s speed=0.00991x elapsed=0:03:23.59    \nframe=  123 fps=0.6 q=40.1 size=     512KiB time=00:00:02.01 bitrate=2080.0kbits/s speed=0.00988x elapsed=0:03:24.12    \nframe=  123 fps=0.6 q=40.1 size=     512KiB time=00:00:02.01 bitrate=2080.0kbits/s speed=0.00985x elapsed=0:03:24.65    \nframe=  125 fps=0.6 q=33.9 size=     512KiB time=00:00:02.05 bitrate=2046.2kbits/s speed=0.00999x elapsed=0:03:25.17    \nframe=  126 fps=0.6 q=37.4 size=     512KiB time=00:00:02.06 bitrate=2029.7kbits/s speed=0.01x elapsed=0:03:25.70    \nframe=  126 fps=0.6 q=37.4 size=     512KiB time=00:00:02.06 bitrate=2029.7kbits/s speed=0.01x elapsed=0:03:26.25    \nframe=  127 fps=0.6 q=40.1 size=     512KiB time=00:00:02.08 bitrate=2013.4kbits/s speed=0.0101x elapsed=0:03:26.79    \nframe=  127 fps=0.6 q=40.1 size=     512KiB time=00:00:02.08 bitrate=2013.4kbits/s speed=0.01x elapsed=0:03:27.37    \nframe=  127 fps=0.6 q=40.1 size=     512KiB time=00:00:02.08 bitrate=2013.4kbits/s speed=0.01x elapsed=0:03:27.93    \nframe=  128 fps=0.6 q=40.1 size=     512KiB time=00:00:02.08 bitrate=2013.4kbits/s speed=0.00999x elapsed=0:03:28.49    \nframe=  128 fps=0.6 q=40.1 size=     512KiB time=00:00:02.10 bitrate=1997.5kbits/s speed=0.01x elapsed=0:03:29.08    \nframe=  129 fps=0.6 q=33.6 size=     512KiB time=00:00:02.10 bitrate=1997.5kbits/s speed=0.01x elapsed=0:03:29.64    \nframe=  129 fps=0.6 q=33.6 size=     512KiB time=00:00:02.11 bitrate=1981.7kbits/s speed=0.0101x elapsed=0:03:30.28    \nframe=  129 fps=0.6 q=33.6 size=     512KiB time=00:00:02.11 bitrate=1981.7kbits/s speed=0.01x elapsed=0:03:30.84    \nframe=  130 fps=0.6 q=38.8 size=     512KiB time=00:00:02.11 bitrate=1981.7kbits/s speed=0.01x elapsed=0:03:31.40    \nframe=  130 fps=0.6 q=38.8 size=     512KiB time=00:00:02.13 bitrate=1966.2kbits/s speed=0.0101x elapsed=0:03:31.98    \nframe=  131 fps=0.6 q=40.0 size=     512KiB time=00:00:02.15 bitrate=1951.0kbits/s speed=0.0101x elapsed=0:03:32.50    \nframe=  131 fps=0.6 q=40.0 size=     512KiB time=00:00:02.15 bitrate=1951.0kbits/s speed=0.0101x elapsed=0:03:33.04    \nframe=  131 fps=0.6 q=40.0 size=     512KiB time=00:00:02.15 bitrate=1951.0kbits/s speed=0.0101x elapsed=0:03:33.58    \nframe=  131 fps=0.6 q=40.0 size=     512KiB time=00:00:02.15 bitrate=1951.0kbits/s speed=0.01x elapsed=0:03:34.12    \nframe=  131 fps=0.6 q=40.0 size=     512KiB time=00:00:02.15 bitrate=1951.0kbits/s speed=0.01x elapsed=0:03:34.64    \nframe=  132 fps=0.6 q=33.7 size=     512KiB time=00:00:02.16 bitrate=1936.0kbits/s speed=0.0101x elapsed=0:03:35.24    \nframe=  133 fps=0.6 q=37.4 size=     512KiB time=00:00:02.18 bitrate=1921.2kbits/s speed=0.0101x elapsed=0:03:35.86    \nframe=  133 fps=0.6 q=37.4 size=     512KiB time=00:00:02.18 bitrate=1921.2kbits/s speed=0.0101x elapsed=0:03:36.49    \nframe=  133 fps=0.6 q=37.4 size=     512KiB time=00:00:02.18 bitrate=1921.2kbits/s speed=0.0101x elapsed=0:03:37.02    \nframe=  134 fps=0.6 q=40.1 size=     512KiB time=00:00:02.20 bitrate=1906.7kbits/s speed=0.0101x elapsed=0:03:37.56    \nframe=  134 fps=0.6 q=40.1 size=     512KiB time=00:00:02.20 bitrate=1906.7kbits/s speed=0.0101x elapsed=0:03:38.12    \nframe=  134 fps=0.6 q=40.1 size=     512KiB time=00:00:02.20 bitrate=1906.7kbits/s speed=0.0101x elapsed=0:03:38.72    \nframe=  136 fps=0.6 q=33.4 size=     512KiB time=00:00:02.23 bitrate=1878.2kbits/s speed=0.0102x elapsed=0:03:39.25    \nframe=  136 fps=0.6 q=33.4 size=     512KiB time=00:00:02.23 bitrate=1878.2kbits/s speed=0.0102x elapsed=0:03:39.79    \nframe=  136 fps=0.6 q=33.4 size=     512KiB time=00:00:02.23 bitrate=1878.2kbits/s speed=0.0101x elapsed=0:03:40.37    \nframe=  136 fps=0.6 q=33.4 size=     512KiB time=00:00:02.23 bitrate=1878.2kbits/s speed=0.0101x elapsed=0:03:40.92    \nframe=  136 fps=0.6 q=33.4 size=     512KiB time=00:00:02.23 bitrate=1878.2kbits/s speed=0.0101x elapsed=0:03:41.45    \nframe=  137 fps=0.6 q=38.6 size=     512KiB time=00:00:02.25 bitrate=1864.3kbits/s speed=0.0101x elapsed=0:03:42.04    \nframe=  138 fps=0.6 q=40.1 size=     512KiB time=00:00:02.26 bitrate=1850.6kbits/s speed=0.0102x elapsed=0:03:42.60    \nframe=  139 fps=0.6 q=40.1 size=     512KiB time=00:00:02.28 bitrate=1837.1kbits/s speed=0.0102x elapsed=0:03:43.16    \nframe=  140 fps=0.6 q=40.1 size=     512KiB time=00:00:02.30 bitrate=1823.8kbits/s speed=0.0103x elapsed=0:03:43.71    \nframe=  140 fps=0.6 q=40.1 size=     512KiB time=00:00:02.30 bitrate=1823.8kbits/s speed=0.0103x elapsed=0:03:44.26    \nframe=  140 fps=0.6 q=40.1 size=     512KiB time=00:00:02.30 bitrate=1823.8kbits/s speed=0.0102x elapsed=0:03:44.83    \nframe=  140 fps=0.6 q=40.1 size=     512KiB time=00:00:02.30 bitrate=1823.8kbits/s speed=0.0102x elapsed=0:03:45.47    \nframe=  140 fps=0.6 q=40.1 size=     512KiB time=00:00:02.30 bitrate=1823.8kbits/s speed=0.0102x elapsed=0:03:46.09    \nframe=  140 fps=0.6 q=40.1 size=     512KiB time=00:00:02.30 bitrate=1823.8kbits/s speed=0.0101x elapsed=0:03:46.63    \nframe=  140 fps=0.6 q=40.1 size=     512KiB time=00:00:02.30 bitrate=1823.8kbits/s speed=0.0101x elapsed=0:03:47.24    \nframe=  140 fps=0.6 q=40.1 size=     512KiB time=00:00:02.30 bitrate=1823.8kbits/s speed=0.0101x elapsed=0:03:47.83    \nframe=  140 fps=0.6 q=40.1 size=     512KiB time=00:00:02.30 bitrate=1823.8kbits/s speed=0.0101x elapsed=0:03:48.38    \nframe=  141 fps=0.6 q=33.9 size=     512KiB time=00:00:02.31 bitrate=1810.6kbits/s speed=0.0101x elapsed=0:03:49.00    \nframe=  141 fps=0.6 q=33.9 size=     512KiB time=00:00:02.31 bitrate=1810.6kbits/s speed=0.0101x elapsed=0:03:49.58    \nframe=  141 fps=0.6 q=33.9 size=     512KiB time=00:00:02.31 bitrate=1810.6kbits/s speed=0.0101x elapsed=0:03:50.25    \nframe=  142 fps=0.6 q=38.7 size=     512KiB time=00:00:02.33 bitrate=1797.7kbits/s speed=0.0101x elapsed=0:03:50.82    \nframe=  143 fps=0.6 q=39.7 size=     512KiB time=00:00:02.35 bitrate=1785.0kbits/s speed=0.0102x elapsed=0:03:51.40    \nframe=  144 fps=0.6 q=39.9 size=     512KiB time=00:00:02.36 bitrate=1772.4kbits/s speed=0.0102x elapsed=0:03:51.98    \nframe=  144 fps=0.6 q=39.9 size=     512KiB time=00:00:02.36 bitrate=1772.4kbits/s speed=0.0102x elapsed=0:03:52.58    \nframe=  144 fps=0.6 q=39.9 size=     512KiB time=00:00:02.36 bitrate=1772.4kbits/s speed=0.0101x elapsed=0:03:53.17    \nframe=  144 fps=0.6 q=39.9 size=     512KiB time=00:00:02.36 bitrate=1772.4kbits/s speed=0.0101x elapsed=0:03:53.79    \nframe=  144 fps=0.6 q=39.9 size=     512KiB time=00:00:02.36 bitrate=1772.4kbits/s speed=0.0101x elapsed=0:03:54.39    \nframe=  144 fps=0.6 q=39.9 size=     512KiB time=00:00:02.36 bitrate=1772.4kbits/s speed=0.0101x elapsed=0:03:54.95    \nframe=  146 fps=0.6 q=33.8 size=     768KiB time=00:00:02.40 bitrate=2621.6kbits/s speed=0.0102x elapsed=0:03:55.46    \nframe=  146 fps=0.6 q=33.8 size=     768KiB time=00:00:02.40 bitrate=2621.6kbits/s speed=0.0102x elapsed=0:03:55.99    \nframe=  147 fps=0.6 q=37.3 size=     768KiB time=00:00:02.41 bitrate=2603.5kbits/s speed=0.0102x elapsed=0:03:56.53    \nframe=  148 fps=0.6 q=40.1 size=     768KiB time=00:00:02.43 bitrate=2585.7kbits/s speed=0.0103x elapsed=0:03:57.07    \nframe=  149 fps=0.6 q=33.7 size=     768KiB time=00:00:02.45 bitrate=2568.1kbits/s speed=0.0103x elapsed=0:03:57.60    \nframe=  149 fps=0.6 q=33.7 size=     768KiB time=00:00:02.45 bitrate=2568.1kbits/s speed=0.0103x elapsed=0:03:58.18    \nframe=  150 fps=0.6 q=37.0 size=     768KiB time=00:00:02.45 bitrate=2568.1kbits/s speed=0.0103x elapsed=0:03:58.77    \nframe=  150 fps=0.6 q=37.0 size=     768KiB time=00:00:02.46 bitrate=2550.7kbits/s speed=0.0103x elapsed=0:03:59.37    \nframe=  151 fps=0.6 q=39.9 size=     768KiB time=00:00:02.48 bitrate=2533.6kbits/s speed=0.0103x elapsed=0:03:59.96    \nframe=  151 fps=0.6 q=39.9 size=     768KiB time=00:00:02.48 bitrate=2533.6kbits/s speed=0.0103x elapsed=0:04:00.55    \nframe=  151 fps=0.6 q=39.9 size=     768KiB time=00:00:02.48 bitrate=2533.6kbits/s speed=0.0103x elapsed=0:04:01.11    \nframe=  152 fps=0.6 q=39.9 size=     768KiB time=00:00:02.50 bitrate=2516.7kbits/s speed=0.0103x elapsed=0:04:01.68    \nframe=  152 fps=0.6 q=39.9 size=     768KiB time=00:00:02.50 bitrate=2516.7kbits/s speed=0.0103x elapsed=0:04:02.27    \nframe=  152 fps=0.6 q=39.9 size=     768KiB time=00:00:02.50 bitrate=2516.7kbits/s speed=0.0103x elapsed=0:04:02.79    \nframe=  153 fps=0.6 q=33.8 size=     768KiB time=00:00:02.51 bitrate=2500.1kbits/s speed=0.0103x elapsed=0:04:03.31    \nframe=  154 fps=0.6 q=36.4 size=     768KiB time=00:00:02.53 bitrate=2483.6kbits/s speed=0.0104x elapsed=0:04:03.84    \nframe=  154 fps=0.6 q=36.4 size=     768KiB time=00:00:02.53 bitrate=2483.6kbits/s speed=0.0104x elapsed=0:04:04.36    \nframe=  155 fps=0.6 q=39.6 size=     768KiB time=00:00:02.55 bitrate=2467.4kbits/s speed=0.0104x elapsed=0:04:04.99    \nframe=  156 fps=0.6 q=39.9 size=     768KiB time=00:00:02.56 bitrate=2451.4kbits/s speed=0.0104x elapsed=0:04:05.62    \nframe=  156 fps=0.6 q=39.9 size=     768KiB time=00:00:02.56 bitrate=2451.4kbits/s speed=0.0104x elapsed=0:04:06.26    \nframe=  156 fps=0.6 q=39.9 size=     768KiB time=00:00:02.56 bitrate=2451.4kbits/s speed=0.0104x elapsed=0:04:06.83    \nframe=  156 fps=0.6 q=39.9 size=     768KiB time=00:00:02.56 bitrate=2451.4kbits/s speed=0.0104x elapsed=0:04:07.36    \nframe=  156 fps=0.6 q=39.9 size=     768KiB time=00:00:02.56 bitrate=2451.4kbits/s speed=0.0104x elapsed=0:04:07.96    \nframe=  156 fps=0.6 q=39.9 size=     768KiB time=00:00:02.56 bitrate=2451.4kbits/s speed=0.0103x elapsed=0:04:08.54    \nframe=  156 fps=0.6 q=39.9 size=     768KiB time=00:00:02.56 bitrate=2451.4kbits/s speed=0.0103x elapsed=0:04:09.14    \nframe=  156 fps=0.6 q=39.9 size=     768KiB time=00:00:02.56 bitrate=2451.4kbits/s speed=0.0103x elapsed=0:04:09.69    \nframe=  157 fps=0.6 q=33.9 size=     768KiB time=00:00:02.58 bitrate=2435.5kbits/s speed=0.0103x elapsed=0:04:10.27    \nframe=  157 fps=0.6 q=33.9 size=     768KiB time=00:00:02.58 bitrate=2435.5kbits/s speed=0.0103x elapsed=0:04:10.90    \nframe=  157 fps=0.6 q=33.9 size=     768KiB time=00:00:02.58 bitrate=2435.5kbits/s speed=0.0103x elapsed=0:04:11.48    \nframe=  158 fps=0.6 q=36.8 size=     768KiB time=00:00:02.60 bitrate=2419.9kbits/s speed=0.0103x elapsed=0:04:12.15    \nframe=  158 fps=0.6 q=36.8 size=     768KiB time=00:00:02.60 bitrate=2419.9kbits/s speed=0.0103x elapsed=0:04:12.69    \nframe=  158 fps=0.6 q=36.8 size=     768KiB time=00:00:02.60 bitrate=2419.9kbits/s speed=0.0103x elapsed=0:04:13.35    \nframe=  158 fps=0.6 q=36.8 size=     768KiB time=00:00:02.60 bitrate=2419.9kbits/s speed=0.0102x elapsed=0:04:13.95    \nframe=  158 fps=0.6 q=36.8 size=     768KiB time=00:00:02.60 bitrate=2419.9kbits/s speed=0.0102x elapsed=0:04:14.52    \nframe=  159 fps=0.6 q=39.8 size=     768KiB time=00:00:02.61 bitrate=2404.5kbits/s speed=0.0103x elapsed=0:04:15.07    \nframe=  159 fps=0.6 q=39.8 size=     768KiB time=00:00:02.61 bitrate=2404.5kbits/s speed=0.0102x elapsed=0:04:15.65    \nframe=  159 fps=0.6 q=39.8 size=     768KiB time=00:00:02.61 bitrate=2404.5kbits/s speed=0.0102x elapsed=0:04:16.22    \nframe=  160 fps=0.6 q=39.7 size=     768KiB time=00:00:02.63 bitrate=2389.3kbits/s speed=0.0103x elapsed=0:04:16.83    \nframe=  160 fps=0.6 q=39.7 size=     768KiB time=00:00:02.63 bitrate=2389.3kbits/s speed=0.0102x elapsed=0:04:17.35    \nframe=  161 fps=0.6 q=33.5 size=     768KiB time=00:00:02.65 bitrate=2374.3kbits/s speed=0.0103x elapsed=0:04:17.90    \nframe=  161 fps=0.6 q=33.5 size=     768KiB time=00:00:02.65 bitrate=2374.3kbits/s speed=0.0103x elapsed=0:04:18.48    \nframe=  161 fps=0.6 q=33.5 size=     768KiB time=00:00:02.65 bitrate=2374.3kbits/s speed=0.0102x elapsed=0:04:19.04    \nframe=  161 fps=0.6 q=33.5 size=     768KiB time=00:00:02.65 bitrate=2374.3kbits/s speed=0.0102x elapsed=0:04:19.61    \nframe=  161 fps=0.6 q=33.5 size=     768KiB time=00:00:02.65 bitrate=2374.3kbits/s speed=0.0102x elapsed=0:04:20.22    \nframe=  161 fps=0.6 q=33.5 size=     768KiB time=00:00:02.65 bitrate=2374.3kbits/s speed=0.0102x elapsed=0:04:20.80    \nframe=  162 fps=0.6 q=37.0 size=     768KiB time=00:00:02.66 bitrate=2359.4kbits/s speed=0.0102x elapsed=0:04:21.32    \nframe=  162 fps=0.6 q=37.0 size=     768KiB time=00:00:02.66 bitrate=2359.4kbits/s speed=0.0102x elapsed=0:04:21.87    \nframe=  163 fps=0.6 q=39.3 size=     768KiB time=00:00:02.68 bitrate=2344.8kbits/s speed=0.0102x elapsed=0:04:22.44    \nframe=  164 fps=0.6 q=39.6 size=     768KiB time=00:00:02.70 bitrate=2330.3kbits/s speed=0.0103x elapsed=0:04:22.98    \nframe=  165 fps=0.6 q=33.8 size=     768KiB time=00:00:02.71 bitrate=2316.0kbits/s speed=0.0103x elapsed=0:04:23.52    \nframe=  165 fps=0.6 q=33.8 size=     768KiB time=00:00:02.71 bitrate=2316.0kbits/s speed=0.0103x elapsed=0:04:24.06    \nframe=  166 fps=0.6 q=37.0 size=     768KiB time=00:00:02.73 bitrate=2301.9kbits/s speed=0.0103x elapsed=0:04:24.58    \nframe=  166 fps=0.6 q=37.0 size=     768KiB time=00:00:02.73 bitrate=2301.9kbits/s speed=0.0103x elapsed=0:04:25.10    \nframe=  168 fps=0.6 q=39.6 size=     768KiB time=00:00:02.76 bitrate=2274.1kbits/s speed=0.0104x elapsed=0:04:25.71    \nframe=  168 fps=0.6 q=39.6 size=     768KiB time=00:00:02.76 bitrate=2274.1kbits/s speed=0.0104x elapsed=0:04:26.40    \nframe=  168 fps=0.6 q=39.6 size=     768KiB time=00:00:02.76 bitrate=2274.1kbits/s speed=0.0104x elapsed=0:04:27.01    \nframe=  168 fps=0.6 q=39.6 size=     768KiB time=00:00:02.76 bitrate=2274.1kbits/s speed=0.0103x elapsed=0:04:27.58    \nframe=  168 fps=0.6 q=39.6 size=     768KiB time=00:00:02.76 bitrate=2274.1kbits/s speed=0.0103x elapsed=0:04:28.13    \nframe=  169 fps=0.6 q=33.7 size=     768KiB time=00:00:02.78 bitrate=2260.5kbits/s speed=0.0104x elapsed=0:04:28.68    \nframe=  169 fps=0.6 q=33.7 size=     768KiB time=00:00:02.78 bitrate=2260.5kbits/s speed=0.0103x elapsed=0:04:29.20    \nframe=  169 fps=0.6 q=33.7 size=     768KiB time=00:00:02.78 bitrate=2260.5kbits/s speed=0.0103x elapsed=0:04:29.86    \nframe=  170 fps=0.6 q=36.9 size=     768KiB time=00:00:02.80 bitrate=2247.1kbits/s speed=0.0104x elapsed=0:04:30.39    \nframe=  170 fps=0.6 q=36.9 size=     768KiB time=00:00:02.80 bitrate=2247.1kbits/s speed=0.0103x elapsed=0:04:30.96    \nframe=  170 fps=0.6 q=36.9 size=     768KiB time=00:00:02.80 bitrate=2247.1kbits/s speed=0.0103x elapsed=0:04:31.46    \nframe=  171 fps=0.6 q=39.5 size=     768KiB time=00:00:02.81 bitrate=2233.8kbits/s speed=0.0104x elapsed=0:04:31.99    \nframe=  171 fps=0.6 q=39.5 size=     768KiB time=00:00:02.81 bitrate=2233.8kbits/s speed=0.0103x elapsed=0:04:32.67    \nframe=  172 fps=0.6 q=39.5 size=     768KiB time=00:00:02.83 bitrate=2220.6kbits/s speed=0.0104x elapsed=0:04:33.25    \nframe=  172 fps=0.6 q=39.5 size=     768KiB time=00:00:02.83 bitrate=2220.6kbits/s speed=0.0103x elapsed=0:04:33.78    \nframe=  173 fps=0.6 q=34.4 size=     768KiB time=00:00:02.85 bitrate=2207.7kbits/s speed=0.0104x elapsed=0:04:34.29    \nframe=  173 fps=0.6 q=34.4 size=     768KiB time=00:00:02.85 bitrate=2207.7kbits/s speed=0.0104x elapsed=0:04:34.81    \nframe=  173 fps=0.6 q=34.4 size=     768KiB time=00:00:02.85 bitrate=2207.7kbits/s speed=0.0103x elapsed=0:04:35.43    \nframe=  173 fps=0.6 q=34.4 size=     768KiB time=00:00:02.85 bitrate=2207.7kbits/s speed=0.0103x elapsed=0:04:36.01    \nframe=  174 fps=0.6 q=37.2 size=     768KiB time=00:00:02.86 bitrate=2194.8kbits/s speed=0.0104x elapsed=0:04:36.65    \nframe=  175 fps=0.6 q=39.3 size=     768KiB time=00:00:02.88 bitrate=2182.1kbits/s speed=0.0104x elapsed=0:04:37.21    \nReceived > 3 system signals, hard exiting\n",
  "seconds": 278.4778187274933
}